<mxfile host="app.diagrams.net" agent="Mozilla/5.0 (Windows NT 10.0; Win64; x64) AppleWebKit/537.36 (KHTML, like Gecko) Chrome/140.0.0.0 Safari/537.36" version="28.2.5">
  <diagram name="หน้า-1" id="qrqjwBidiy2WAEIDYDny">
    <mxGraphModel dx="1491" dy="691" grid="1" gridSize="10" guides="1" tooltips="1" connect="1" arrows="1" fold="1" page="1" pageScale="1" pageWidth="827" pageHeight="1169" math="0" shadow="0">
      <root>
        <mxCell id="0" />
        <mxCell id="1" parent="0" />
        <mxCell id="xw_fp1jqqpchSPmnGfNr-1" value="" style="edgeStyle=orthogonalEdgeStyle;rounded=0;orthogonalLoop=1;jettySize=auto;html=1;" parent="1" source="xw_fp1jqqpchSPmnGfNr-2" target="xw_fp1jqqpchSPmnGfNr-4" edge="1">
          <mxGeometry relative="1" as="geometry" />
        </mxCell>
        <mxCell id="xw_fp1jqqpchSPmnGfNr-2" value="Start" style="ellipse;whiteSpace=wrap;html=1;" parent="1" vertex="1">
          <mxGeometry x="310" y="70" width="120" height="50" as="geometry" />
        </mxCell>
        <mxCell id="xw_fp1jqqpchSPmnGfNr-3" value="" style="edgeStyle=orthogonalEdgeStyle;rounded=0;orthogonalLoop=1;jettySize=auto;html=1;" parent="1" source="xw_fp1jqqpchSPmnGfNr-4" target="xw_fp1jqqpchSPmnGfNr-6" edge="1">
          <mxGeometry relative="1" as="geometry" />
        </mxCell>
        <mxCell id="xw_fp1jqqpchSPmnGfNr-4" value="ตั้งค่าเริ่มต้น&#xa;isPalindrome = 1" style="whiteSpace=wrap;html=1;" parent="1" vertex="1">
          <mxGeometry x="270" y="170" width="200" height="60" as="geometry" />
        </mxCell>
        <mxCell id="xw_fp1jqqpchSPmnGfNr-5" value="" style="edgeStyle=orthogonalEdgeStyle;rounded=0;orthogonalLoop=1;jettySize=auto;html=1;" parent="1" source="xw_fp1jqqpchSPmnGfNr-6" target="xw_fp1jqqpchSPmnGfNr-8" edge="1">
          <mxGeometry relative="1" as="geometry" />
        </mxCell>
        <mxCell id="xw_fp1jqqpchSPmnGfNr-6" value="แสดง: Enter word:" style="shape=parallelogram;perimeter=parallelogramPerimeter;whiteSpace=wrap;html=1;" parent="1" vertex="1">
          <mxGeometry x="260" y="280" width="220" height="60" as="geometry" />
        </mxCell>
        <mxCell id="xw_fp1jqqpchSPmnGfNr-7" value="" style="edgeStyle=orthogonalEdgeStyle;rounded=0;orthogonalLoop=1;jettySize=auto;html=1;" parent="1" source="xw_fp1jqqpchSPmnGfNr-8" target="xw_fp1jqqpchSPmnGfNr-10" edge="1">
          <mxGeometry relative="1" as="geometry" />
        </mxCell>
        <mxCell id="xw_fp1jqqpchSPmnGfNr-8" value="รับคำ word (สตริง)" style="shape=parallelogram;perimeter=parallelogramPerimeter;whiteSpace=wrap;html=1;" parent="1" vertex="1">
          <mxGeometry x="260" y="400" width="220" height="60" as="geometry" />
        </mxCell>
        <mxCell id="xw_fp1jqqpchSPmnGfNr-9" value="" style="edgeStyle=orthogonalEdgeStyle;rounded=0;orthogonalLoop=1;jettySize=auto;html=1;" parent="1" source="xw_fp1jqqpchSPmnGfNr-10" target="xw_fp1jqqpchSPmnGfNr-52" edge="1">
          <mxGeometry relative="1" as="geometry" />
        </mxCell>
        <mxCell id="xw_fp1jqqpchSPmnGfNr-10" value="ตั้ง i = 0" style="whiteSpace=wrap;html=1;" parent="1" vertex="1">
          <mxGeometry x="280" y="540" width="180" height="50" as="geometry" />
        </mxCell>
        <mxCell id="xw_fp1jqqpchSPmnGfNr-11" value="" style="edgeStyle=orthogonalEdgeStyle;rounded=0;orthogonalLoop=1;jettySize=auto;html=1;" parent="1" source="xw_fp1jqqpchSPmnGfNr-13" target="xw_fp1jqqpchSPmnGfNr-16" edge="1">
          <mxGeometry relative="1" as="geometry" />
        </mxCell>
        <mxCell id="i4lOwxQhFvUopjA6in88-8" value="จริง" style="edgeLabel;html=1;align=center;verticalAlign=middle;resizable=0;points=[];" parent="xw_fp1jqqpchSPmnGfNr-11" connectable="0" vertex="1">
          <mxGeometry x="-0.0222" y="-2" relative="1" as="geometry">
            <mxPoint as="offset" />
          </mxGeometry>
        </mxCell>
        <mxCell id="xw_fp1jqqpchSPmnGfNr-12" style="edgeStyle=orthogonalEdgeStyle;rounded=0;orthogonalLoop=1;jettySize=auto;html=1;entryX=0.5;entryY=0;entryDx=0;entryDy=0;" parent="1" source="xw_fp1jqqpchSPmnGfNr-13" target="xw_fp1jqqpchSPmnGfNr-22" edge="1">
          <mxGeometry relative="1" as="geometry">
            <mxPoint x="580" y="1290" as="targetPoint" />
            <Array as="points">
              <mxPoint x="590" y="780" />
              <mxPoint x="590" y="1250" />
              <mxPoint x="380" y="1250" />
            </Array>
          </mxGeometry>
        </mxCell>
        <mxCell id="i4lOwxQhFvUopjA6in88-1" value="เท็จ" style="edgeLabel;html=1;align=center;verticalAlign=middle;resizable=0;points=[];" parent="xw_fp1jqqpchSPmnGfNr-12" connectable="0" vertex="1">
          <mxGeometry x="-0.8554" y="2" relative="1" as="geometry">
            <mxPoint as="offset" />
          </mxGeometry>
        </mxCell>
        <mxCell id="xw_fp1jqqpchSPmnGfNr-13" value="ยังไม่จบคำ?&#xa;(word[i] != 0)" style="rhombus;whiteSpace=wrap;html=1;" parent="1" vertex="1">
          <mxGeometry x="270" y="730" width="200" height="80" as="geometry" />
        </mxCell>
        <mxCell id="xw_fp1jqqpchSPmnGfNr-14" value="" style="edgeStyle=orthogonalEdgeStyle;rounded=0;orthogonalLoop=1;jettySize=auto;html=1;" parent="1" source="xw_fp1jqqpchSPmnGfNr-16" target="xw_fp1jqqpchSPmnGfNr-18" edge="1">
          <mxGeometry relative="1" as="geometry" />
        </mxCell>
        <mxCell id="i4lOwxQhFvUopjA6in88-9" value="จริง" style="edgeLabel;html=1;align=center;verticalAlign=middle;resizable=0;points=[];" parent="xw_fp1jqqpchSPmnGfNr-14" connectable="0" vertex="1">
          <mxGeometry x="-0.1704" y="-1" relative="1" as="geometry">
            <mxPoint as="offset" />
          </mxGeometry>
        </mxCell>
        <mxCell id="xw_fp1jqqpchSPmnGfNr-15" style="edgeStyle=orthogonalEdgeStyle;rounded=0;orthogonalLoop=1;jettySize=auto;html=1;entryX=1;entryY=0.5;entryDx=0;entryDy=0;" parent="1" source="xw_fp1jqqpchSPmnGfNr-16" target="xw_fp1jqqpchSPmnGfNr-56" edge="1">
          <mxGeometry relative="1" as="geometry">
            <mxPoint x="530" y="1120" as="targetPoint" />
            <Array as="points">
              <mxPoint x="530" y="905" />
              <mxPoint x="530" y="1115" />
            </Array>
          </mxGeometry>
        </mxCell>
        <mxCell id="i4lOwxQhFvUopjA6in88-2" value="เท็จ" style="edgeLabel;html=1;align=center;verticalAlign=middle;resizable=0;points=[];" parent="xw_fp1jqqpchSPmnGfNr-15" connectable="0" vertex="1">
          <mxGeometry x="-0.547" y="1" relative="1" as="geometry">
            <mxPoint as="offset" />
          </mxGeometry>
        </mxCell>
        <mxCell id="xw_fp1jqqpchSPmnGfNr-16" value="อักขระเป็น A..Z ?" style="rhombus;whiteSpace=wrap;html=1;" parent="1" vertex="1">
          <mxGeometry x="270" y="865" width="200" height="80" as="geometry" />
        </mxCell>
        <mxCell id="xw_fp1jqqpchSPmnGfNr-17" value="" style="edgeStyle=orthogonalEdgeStyle;rounded=0;orthogonalLoop=1;jettySize=auto;html=1;" parent="1" source="xw_fp1jqqpchSPmnGfNr-18" target="xw_fp1jqqpchSPmnGfNr-56" edge="1">
          <mxGeometry relative="1" as="geometry" />
        </mxCell>
        <mxCell id="xw_fp1jqqpchSPmnGfNr-18" value="แปลงเป็นตัวพิมพ์เล็ก&#xa;word[i] = word[i] + 32" style="whiteSpace=wrap;html=1;" parent="1" vertex="1">
          <mxGeometry x="250" y="1005" width="240" height="60" as="geometry" />
        </mxCell>
        <mxCell id="xw_fp1jqqpchSPmnGfNr-19" value="" style="edgeStyle=orthogonalEdgeStyle;rounded=0;orthogonalLoop=1;jettySize=auto;html=1;" parent="1" source="xw_fp1jqqpchSPmnGfNr-58" target="xw_fp1jqqpchSPmnGfNr-32" edge="1">
          <mxGeometry relative="1" as="geometry" />
        </mxCell>
        <mxCell id="xw_fp1jqqpchSPmnGfNr-20" value="i = i + 1" style="whiteSpace=wrap;html=1;" parent="1" vertex="1">
          <mxGeometry x="290" y="1770" width="180" height="50" as="geometry" />
        </mxCell>
        <mxCell id="xw_fp1jqqpchSPmnGfNr-21" value="" style="edgeStyle=orthogonalEdgeStyle;rounded=0;orthogonalLoop=1;jettySize=auto;html=1;" parent="1" source="xw_fp1jqqpchSPmnGfNr-63" target="xw_fp1jqqpchSPmnGfNr-25" edge="1">
          <mxGeometry relative="1" as="geometry" />
        </mxCell>
        <mxCell id="xw_fp1jqqpchSPmnGfNr-22" value="ตั้ง i = 0&#xa;ตั้ง j = ความยาว(word) - 1" style="whiteSpace=wrap;html=1;" parent="1" vertex="1">
          <mxGeometry x="270" y="1280" width="220" height="70" as="geometry" />
        </mxCell>
        <mxCell id="xw_fp1jqqpchSPmnGfNr-23" value="" style="edgeStyle=orthogonalEdgeStyle;rounded=0;orthogonalLoop=1;jettySize=auto;html=1;" parent="1" source="xw_fp1jqqpchSPmnGfNr-25" target="xw_fp1jqqpchSPmnGfNr-28" edge="1">
          <mxGeometry relative="1" as="geometry" />
        </mxCell>
        <mxCell id="i4lOwxQhFvUopjA6in88-10" value="จริง" style="edgeLabel;html=1;align=center;verticalAlign=middle;resizable=0;points=[];" parent="xw_fp1jqqpchSPmnGfNr-23" connectable="0" vertex="1">
          <mxGeometry x="-0.1238" y="1" relative="1" as="geometry">
            <mxPoint as="offset" />
          </mxGeometry>
        </mxCell>
        <mxCell id="xw_fp1jqqpchSPmnGfNr-24" style="edgeStyle=orthogonalEdgeStyle;rounded=0;orthogonalLoop=1;jettySize=auto;html=1;entryX=0.5;entryY=0;entryDx=0;entryDy=0;" parent="1" source="xw_fp1jqqpchSPmnGfNr-25" target="xw_fp1jqqpchSPmnGfNr-29" edge="1">
          <mxGeometry relative="1" as="geometry">
            <Array as="points">
              <mxPoint x="590" y="1490" />
              <mxPoint x="590" y="2670" />
              <mxPoint x="380" y="2670" />
            </Array>
          </mxGeometry>
        </mxCell>
        <mxCell id="i4lOwxQhFvUopjA6in88-3" value="เท็จ" style="edgeLabel;html=1;align=center;verticalAlign=middle;resizable=0;points=[];" parent="xw_fp1jqqpchSPmnGfNr-24" connectable="0" vertex="1">
          <mxGeometry x="-0.7738" y="-2" relative="1" as="geometry">
            <mxPoint as="offset" />
          </mxGeometry>
        </mxCell>
        <mxCell id="xw_fp1jqqpchSPmnGfNr-25" value="i &lt; j ?" style="rhombus;whiteSpace=wrap;html=1;" parent="1" vertex="1">
          <mxGeometry x="280" y="1450" width="200" height="80" as="geometry" />
        </mxCell>
        <mxCell id="xw_fp1jqqpchSPmnGfNr-26" value="" style="edgeStyle=orthogonalEdgeStyle;rounded=0;orthogonalLoop=1;jettySize=auto;html=1;" parent="1" source="xw_fp1jqqpchSPmnGfNr-28" target="xw_fp1jqqpchSPmnGfNr-20" edge="1">
          <mxGeometry relative="1" as="geometry" />
        </mxCell>
        <mxCell id="i4lOwxQhFvUopjA6in88-11" value="จริง" style="edgeLabel;html=1;align=center;verticalAlign=middle;resizable=0;points=[];" parent="xw_fp1jqqpchSPmnGfNr-26" connectable="0" vertex="1">
          <mxGeometry x="-0.2296" y="-2" relative="1" as="geometry">
            <mxPoint as="offset" />
          </mxGeometry>
        </mxCell>
        <mxCell id="xw_fp1jqqpchSPmnGfNr-27" style="edgeStyle=orthogonalEdgeStyle;rounded=0;orthogonalLoop=1;jettySize=auto;html=1;entryX=1;entryY=0.5;entryDx=0;entryDy=0;" parent="1" source="xw_fp1jqqpchSPmnGfNr-28" target="xw_fp1jqqpchSPmnGfNr-58" edge="1">
          <mxGeometry relative="1" as="geometry">
            <Array as="points">
              <mxPoint x="530" y="1640" />
              <mxPoint x="530" y="1869" />
            </Array>
          </mxGeometry>
        </mxCell>
        <mxCell id="i4lOwxQhFvUopjA6in88-4" value="เท็จ" style="edgeLabel;html=1;align=center;verticalAlign=middle;resizable=0;points=[];" parent="xw_fp1jqqpchSPmnGfNr-27" connectable="0" vertex="1">
          <mxGeometry x="-0.4915" y="-1" relative="1" as="geometry">
            <mxPoint as="offset" />
          </mxGeometry>
        </mxCell>
        <mxCell id="xw_fp1jqqpchSPmnGfNr-28" value="word[i] == &#39; &#39; ?" style="rhombus;whiteSpace=wrap;html=1;" parent="1" vertex="1">
          <mxGeometry x="290" y="1600" width="180" height="80" as="geometry" />
        </mxCell>
        <mxCell id="xw_fp1jqqpchSPmnGfNr-29" value="i = i + 1 (ข้ามช่องว่างซ้าย)" style="whiteSpace=wrap;html=1;" parent="1" vertex="1">
          <mxGeometry x="270" y="2750" width="220" height="50" as="geometry" />
        </mxCell>
        <mxCell id="xw_fp1jqqpchSPmnGfNr-30" value="" style="edgeStyle=orthogonalEdgeStyle;rounded=0;orthogonalLoop=1;jettySize=auto;html=1;" parent="1" source="xw_fp1jqqpchSPmnGfNr-32" target="xw_fp1jqqpchSPmnGfNr-42" edge="1">
          <mxGeometry relative="1" as="geometry" />
        </mxCell>
        <mxCell id="i4lOwxQhFvUopjA6in88-12" value="จริง" style="edgeLabel;html=1;align=center;verticalAlign=middle;resizable=0;points=[];" parent="xw_fp1jqqpchSPmnGfNr-30" connectable="0" vertex="1">
          <mxGeometry x="-0.225" y="1" relative="1" as="geometry">
            <mxPoint as="offset" />
          </mxGeometry>
        </mxCell>
        <mxCell id="xw_fp1jqqpchSPmnGfNr-31" style="edgeStyle=orthogonalEdgeStyle;rounded=0;orthogonalLoop=1;jettySize=auto;html=1;entryX=1;entryY=0.5;entryDx=0;entryDy=0;" parent="1" source="xw_fp1jqqpchSPmnGfNr-32" target="xw_fp1jqqpchSPmnGfNr-59" edge="1">
          <mxGeometry relative="1" as="geometry">
            <Array as="points">
              <mxPoint x="530" y="1950" />
              <mxPoint x="530" y="2165" />
            </Array>
          </mxGeometry>
        </mxCell>
        <mxCell id="i4lOwxQhFvUopjA6in88-5" value="เท็จ" style="edgeLabel;html=1;align=center;verticalAlign=middle;resizable=0;points=[];" parent="xw_fp1jqqpchSPmnGfNr-31" connectable="0" vertex="1">
          <mxGeometry x="-0.458" y="-3" relative="1" as="geometry">
            <mxPoint as="offset" />
          </mxGeometry>
        </mxCell>
        <mxCell id="xw_fp1jqqpchSPmnGfNr-32" value="word[j] == &#39; &#39; ?" style="rhombus;whiteSpace=wrap;html=1;" parent="1" vertex="1">
          <mxGeometry x="290" y="1910" width="180" height="80" as="geometry" />
        </mxCell>
        <mxCell id="xw_fp1jqqpchSPmnGfNr-33" style="edgeStyle=orthogonalEdgeStyle;rounded=0;orthogonalLoop=1;jettySize=auto;html=1;exitX=0.5;exitY=1;exitDx=0;exitDy=0;entryX=0;entryY=0.5;entryDx=0;entryDy=0;" parent="1" source="xw_fp1jqqpchSPmnGfNr-34" target="xw_fp1jqqpchSPmnGfNr-63" edge="1">
          <mxGeometry relative="1" as="geometry">
            <mxPoint x="50" y="1430" as="targetPoint" />
            <Array as="points">
              <mxPoint x="380" y="2990" />
              <mxPoint x="180" y="2990" />
              <mxPoint x="180" y="1405" />
            </Array>
          </mxGeometry>
        </mxCell>
        <mxCell id="xw_fp1jqqpchSPmnGfNr-34" value="j = j - 1 (ข้ามช่องว่างขวา)" style="whiteSpace=wrap;html=1;" parent="1" vertex="1">
          <mxGeometry x="270" y="2870" width="220" height="50" as="geometry" />
        </mxCell>
        <mxCell id="xw_fp1jqqpchSPmnGfNr-35" value="" style="edgeStyle=orthogonalEdgeStyle;rounded=0;orthogonalLoop=1;jettySize=auto;html=1;" parent="1" source="xw_fp1jqqpchSPmnGfNr-37" target="xw_fp1jqqpchSPmnGfNr-54" edge="1">
          <mxGeometry relative="1" as="geometry" />
        </mxCell>
        <mxCell id="i4lOwxQhFvUopjA6in88-13" value="จริง" style="edgeLabel;html=1;align=center;verticalAlign=middle;resizable=0;points=[];" parent="xw_fp1jqqpchSPmnGfNr-35" connectable="0" vertex="1">
          <mxGeometry x="-0.3067" y="-4" relative="1" as="geometry">
            <mxPoint as="offset" />
          </mxGeometry>
        </mxCell>
        <mxCell id="xw_fp1jqqpchSPmnGfNr-36" style="edgeStyle=orthogonalEdgeStyle;rounded=0;orthogonalLoop=1;jettySize=auto;html=1;entryX=0.5;entryY=0;entryDx=0;entryDy=0;" parent="1" source="xw_fp1jqqpchSPmnGfNr-37" target="xw_fp1jqqpchSPmnGfNr-34" edge="1">
          <mxGeometry relative="1" as="geometry">
            <Array as="points">
              <mxPoint x="560" y="2250" />
              <mxPoint x="560" y="2840" />
              <mxPoint x="380" y="2840" />
            </Array>
          </mxGeometry>
        </mxCell>
        <mxCell id="i4lOwxQhFvUopjA6in88-6" value="เท็จ" style="edgeLabel;html=1;align=center;verticalAlign=middle;resizable=0;points=[];" parent="xw_fp1jqqpchSPmnGfNr-36" connectable="0" vertex="1">
          <mxGeometry x="-0.6601" relative="1" as="geometry">
            <mxPoint as="offset" />
          </mxGeometry>
        </mxCell>
        <mxCell id="xw_fp1jqqpchSPmnGfNr-37" value="word[i] != word[j] ?" style="rhombus;whiteSpace=wrap;html=1;" parent="1" vertex="1">
          <mxGeometry x="280" y="2210" width="200" height="80" as="geometry" />
        </mxCell>
        <mxCell id="xw_fp1jqqpchSPmnGfNr-38" style="edgeStyle=orthogonalEdgeStyle;rounded=0;orthogonalLoop=1;jettySize=auto;html=1;entryX=0;entryY=1;entryDx=0;entryDy=0;" parent="1" source="xw_fp1jqqpchSPmnGfNr-39" target="xw_fp1jqqpchSPmnGfNr-54" edge="1">
          <mxGeometry relative="1" as="geometry">
            <Array as="points">
              <mxPoint x="240" y="2605" />
              <mxPoint x="240" y="2366" />
            </Array>
          </mxGeometry>
        </mxCell>
        <mxCell id="xw_fp1jqqpchSPmnGfNr-39" value="isPalindrome = 0" style="whiteSpace=wrap;html=1;" parent="1" vertex="1">
          <mxGeometry x="280" y="2580" width="200" height="50" as="geometry" />
        </mxCell>
        <mxCell id="xw_fp1jqqpchSPmnGfNr-40" value="i = i + 1" style="whiteSpace=wrap;html=1;" parent="1" vertex="1">
          <mxGeometry x="290" y="1160" width="160" height="50" as="geometry" />
        </mxCell>
        <mxCell id="xw_fp1jqqpchSPmnGfNr-41" value="" style="edgeStyle=orthogonalEdgeStyle;rounded=0;orthogonalLoop=1;jettySize=auto;html=1;" parent="1" source="xw_fp1jqqpchSPmnGfNr-42" target="xw_fp1jqqpchSPmnGfNr-37" edge="1">
          <mxGeometry relative="1" as="geometry" />
        </mxCell>
        <mxCell id="xw_fp1jqqpchSPmnGfNr-42" value="j = j - 1" style="whiteSpace=wrap;html=1;" parent="1" vertex="1">
          <mxGeometry x="300" y="2070" width="160" height="50" as="geometry" />
        </mxCell>
        <mxCell id="xw_fp1jqqpchSPmnGfNr-43" style="edgeStyle=orthogonalEdgeStyle;rounded=0;orthogonalLoop=1;jettySize=auto;html=1;entryX=0.5;entryY=0;entryDx=0;entryDy=0;" parent="1" source="xw_fp1jqqpchSPmnGfNr-45" target="xw_fp1jqqpchSPmnGfNr-49" edge="1">
          <mxGeometry relative="1" as="geometry" />
        </mxCell>
        <mxCell id="i4lOwxQhFvUopjA6in88-7" value="เท็จ" style="edgeLabel;html=1;align=center;verticalAlign=middle;resizable=0;points=[];" parent="xw_fp1jqqpchSPmnGfNr-43" connectable="0" vertex="1">
          <mxGeometry x="-0.909" relative="1" as="geometry">
            <mxPoint as="offset" />
          </mxGeometry>
        </mxCell>
        <mxCell id="xw_fp1jqqpchSPmnGfNr-44" style="edgeStyle=orthogonalEdgeStyle;rounded=0;orthogonalLoop=1;jettySize=auto;html=1;" parent="1" source="xw_fp1jqqpchSPmnGfNr-45" target="xw_fp1jqqpchSPmnGfNr-47" edge="1">
          <mxGeometry relative="1" as="geometry">
            <Array as="points">
              <mxPoint x="225" y="2460" />
            </Array>
          </mxGeometry>
        </mxCell>
        <mxCell id="i4lOwxQhFvUopjA6in88-14" value="จริง" style="edgeLabel;html=1;align=center;verticalAlign=middle;resizable=0;points=[];" parent="xw_fp1jqqpchSPmnGfNr-44" connectable="0" vertex="1">
          <mxGeometry x="-0.2965" y="-2" relative="1" as="geometry">
            <mxPoint as="offset" />
          </mxGeometry>
        </mxCell>
        <mxCell id="xw_fp1jqqpchSPmnGfNr-45" value="isPalindrome == 1 ?" style="rhombus;whiteSpace=wrap;html=1;" parent="1" vertex="1">
          <mxGeometry x="280" y="2420" width="200" height="80" as="geometry" />
        </mxCell>
        <mxCell id="xw_fp1jqqpchSPmnGfNr-46" style="edgeStyle=orthogonalEdgeStyle;rounded=0;orthogonalLoop=1;jettySize=auto;html=1;entryX=0.5;entryY=0;entryDx=0;entryDy=0;exitX=0.5;exitY=1;exitDx=0;exitDy=0;" parent="1" source="xw_fp1jqqpchSPmnGfNr-47" target="xw_fp1jqqpchSPmnGfNr-61" edge="1">
          <mxGeometry relative="1" as="geometry">
            <Array as="points">
              <mxPoint x="225" y="3360" />
              <mxPoint x="380" y="3360" />
            </Array>
          </mxGeometry>
        </mxCell>
        <mxCell id="xw_fp1jqqpchSPmnGfNr-47" value="แสดง: Pass." style="shape=parallelogram;perimeter=parallelogramPerimeter;whiteSpace=wrap;html=1;" parent="1" vertex="1">
          <mxGeometry x="150" y="3280" width="150" height="50" as="geometry" />
        </mxCell>
        <mxCell id="xw_fp1jqqpchSPmnGfNr-48" style="edgeStyle=orthogonalEdgeStyle;rounded=0;orthogonalLoop=1;jettySize=auto;html=1;entryX=0.5;entryY=0;entryDx=0;entryDy=0;" parent="1" target="xw_fp1jqqpchSPmnGfNr-61" edge="1">
          <mxGeometry relative="1" as="geometry">
            <mxPoint x="610" y="3340" as="sourcePoint" />
            <Array as="points">
              <mxPoint x="610" y="3360" />
              <mxPoint x="380" y="3360" />
            </Array>
          </mxGeometry>
        </mxCell>
        <mxCell id="xw_fp1jqqpchSPmnGfNr-49" value="แสดง: Not Pass." style="shape=parallelogram;perimeter=parallelogramPerimeter;whiteSpace=wrap;html=1;" parent="1" vertex="1">
          <mxGeometry x="520" y="3280" width="170" height="50" as="geometry" />
        </mxCell>
        <mxCell id="xw_fp1jqqpchSPmnGfNr-50" value="Stop" style="ellipse;whiteSpace=wrap;html=1;" parent="1" vertex="1">
          <mxGeometry x="320" y="3490" width="120" height="50" as="geometry" />
        </mxCell>
        <mxCell id="xw_fp1jqqpchSPmnGfNr-51" value="" style="edgeStyle=orthogonalEdgeStyle;rounded=0;orthogonalLoop=1;jettySize=auto;html=1;" parent="1" source="xw_fp1jqqpchSPmnGfNr-52" target="xw_fp1jqqpchSPmnGfNr-13" edge="1">
          <mxGeometry relative="1" as="geometry" />
        </mxCell>
        <mxCell id="xw_fp1jqqpchSPmnGfNr-52" value="" style="ellipse;whiteSpace=wrap;html=1;aspect=fixed;" parent="1" vertex="1">
          <mxGeometry x="355" y="650" width="30" height="30" as="geometry" />
        </mxCell>
        <mxCell id="xw_fp1jqqpchSPmnGfNr-53" value="" style="edgeStyle=orthogonalEdgeStyle;rounded=0;orthogonalLoop=1;jettySize=auto;html=1;" parent="1" source="xw_fp1jqqpchSPmnGfNr-54" target="xw_fp1jqqpchSPmnGfNr-45" edge="1">
          <mxGeometry relative="1" as="geometry" />
        </mxCell>
        <mxCell id="xw_fp1jqqpchSPmnGfNr-54" value="" style="ellipse;whiteSpace=wrap;html=1;aspect=fixed;" parent="1" vertex="1">
          <mxGeometry x="365" y="2340" width="30" height="30" as="geometry" />
        </mxCell>
        <mxCell id="xw_fp1jqqpchSPmnGfNr-55" value="" style="edgeStyle=orthogonalEdgeStyle;rounded=0;orthogonalLoop=1;jettySize=auto;html=1;" parent="1" source="xw_fp1jqqpchSPmnGfNr-56" target="xw_fp1jqqpchSPmnGfNr-40" edge="1">
          <mxGeometry relative="1" as="geometry" />
        </mxCell>
        <mxCell id="xw_fp1jqqpchSPmnGfNr-56" value="" style="ellipse;whiteSpace=wrap;html=1;aspect=fixed;" parent="1" vertex="1">
          <mxGeometry x="355" y="1100" width="30" height="30" as="geometry" />
        </mxCell>
        <mxCell id="xw_fp1jqqpchSPmnGfNr-57" value="" style="edgeStyle=orthogonalEdgeStyle;rounded=0;orthogonalLoop=1;jettySize=auto;html=1;" parent="1" source="xw_fp1jqqpchSPmnGfNr-20" target="xw_fp1jqqpchSPmnGfNr-58" edge="1">
          <mxGeometry relative="1" as="geometry">
            <mxPoint x="380" y="1820" as="sourcePoint" />
            <mxPoint x="380" y="1910" as="targetPoint" />
          </mxGeometry>
        </mxCell>
        <mxCell id="xw_fp1jqqpchSPmnGfNr-58" value="" style="ellipse;whiteSpace=wrap;html=1;aspect=fixed;" parent="1" vertex="1">
          <mxGeometry x="365" y="1853.5" width="30" height="30" as="geometry" />
        </mxCell>
        <mxCell id="xw_fp1jqqpchSPmnGfNr-59" value="" style="ellipse;whiteSpace=wrap;html=1;aspect=fixed;" parent="1" vertex="1">
          <mxGeometry x="365" y="2150" width="30" height="30" as="geometry" />
        </mxCell>
        <mxCell id="xw_fp1jqqpchSPmnGfNr-60" value="" style="edgeStyle=orthogonalEdgeStyle;rounded=0;orthogonalLoop=1;jettySize=auto;html=1;" parent="1" source="xw_fp1jqqpchSPmnGfNr-61" target="xw_fp1jqqpchSPmnGfNr-50" edge="1">
          <mxGeometry relative="1" as="geometry" />
        </mxCell>
        <mxCell id="xw_fp1jqqpchSPmnGfNr-61" value="" style="ellipse;whiteSpace=wrap;html=1;aspect=fixed;" parent="1" vertex="1">
          <mxGeometry x="365" y="3400" width="30" height="30" as="geometry" />
        </mxCell>
        <mxCell id="xw_fp1jqqpchSPmnGfNr-62" value="" style="edgeStyle=orthogonalEdgeStyle;rounded=0;orthogonalLoop=1;jettySize=auto;html=1;" parent="1" source="xw_fp1jqqpchSPmnGfNr-22" target="xw_fp1jqqpchSPmnGfNr-63" edge="1">
          <mxGeometry relative="1" as="geometry">
            <mxPoint x="380" y="1350" as="sourcePoint" />
            <mxPoint x="380" y="1450" as="targetPoint" />
          </mxGeometry>
        </mxCell>
        <mxCell id="xw_fp1jqqpchSPmnGfNr-63" value="" style="ellipse;whiteSpace=wrap;html=1;aspect=fixed;" parent="1" vertex="1">
          <mxGeometry x="365" y="1390" width="30" height="30" as="geometry" />
        </mxCell>
      </root>
    </mxGraphModel>
  </diagram>
</mxfile>
